<svg display="none" version="1.1" xmlns="http://www.w3.org/2000/svg" xmlns:xlink="http://www.w3.org/1999/xlink">
<defs>
<symbol id="icon-forward" viewBox="0 0 1024 1024">
	<title>forward</title>
	<path class="path1" d="M602.88 613.786v223.078l369.92-342.528-369.92-330.496v197.939c-449.28 0-551.68 498.381-551.68 498.381 127.13-224.768 307.814-246.374 551.68-246.374z" />
</symbol>
<symbol id="icon-location" viewBox="0 0 1024 1024">
	<title>location</title>
	<path class="path1" d="M512 102.4c-141.414 0-256 114.637-256 256 0 244.429 256 563.2 256 563.2s256-318.771 256-563.2c0-141.363-114.586-256-256-256zM512 499.712c-76.339 0-138.24-61.901-138.24-138.24s61.901-138.24 138.24-138.24 138.24 61.901 138.24 138.24-61.901 138.24-138.24 138.24z" />
</symbol>
<symbol id="icon-search" viewBox="0 0 1024 1024">
	<title>search</title>
	<path class="path1" d="M898.304 791.962l-193.485-193.485c29.184-47.974 45.978-104.192 45.978-164.454 0-174.899-151.603-326.502-326.554-326.502-174.899 0-316.723 141.824-316.723 316.723 0 174.95 151.552 326.554 326.502 326.554 58.163 0 112.64-15.77 159.488-43.162l194.509 194.56c19.098 19.046 49.92 19.046 68.915 0l48.282-48.23c18.995-19.046 12.083-43.008-6.912-62.003zM205.005 424.243c0-121.088 98.15-219.29 219.238-219.29 121.139 0 229.069 107.93 229.069 229.069s-98.15 219.29-219.29 219.29-229.018-107.93-229.018-229.069z" />
</symbol>
<symbol id="icon-camera" viewBox="0 0 1024 1024">
	<title>camera</title>
	<path class="path1" d="M512 409.6c-84.787 0-153.6 68.813-153.6 153.6 0 84.838 68.813 153.6 153.6 153.6 84.838 0 153.6-68.762 153.6-153.6 0-84.787-68.762-153.6-153.6-153.6zM921.6 256h-122.829c-16.896 0-35.123-13.107-40.448-29.133l-31.744-95.283c-5.427-16.077-23.603-29.184-40.499-29.184h-348.16c-16.896 0-35.123 13.107-40.397 29.133l-31.846 95.334c-5.325 16.026-23.501 29.133-40.397 29.133h-122.88c-56.32 0-102.4 46.080-102.4 102.4v460.8c0 56.32 46.080 102.4 102.4 102.4h819.2c56.371 0 102.4-46.080 102.4-102.4v-460.8c0-56.32-46.029-102.4-102.4-102.4zM512 819.2c-141.414 0-256-114.586-256-256 0-141.363 114.586-256 256-256 141.363 0 256 114.637 256 256 0 141.414-114.637 256-256 256zM885.76 429.978c-19.763 0-35.789-16.026-35.789-35.84s16.026-35.84 35.789-35.84c19.814 0 35.84 16.026 35.84 35.84s-16.026 35.84-35.84 35.84z" />
</symbol>
<symbol id="icon-cross" viewBox="0 0 1024 1024">
	<title>cross</title>
	<path class="path1" d="M734.669 673.382l-141.21-161.382 141.21-161.382c24.013-24.013 24.013-62.925 0-86.886-24.013-23.962-62.925-23.962-86.886 0l-135.782 155.187-135.731-155.136c-24.013-24.013-62.925-24.013-86.886 0-23.962 24.013-23.962 62.925 0 86.886l141.158 161.331-141.21 161.382c-23.962 24.013-23.962 62.822 0 86.784 24.013 24.013 62.925 24.013 86.886 0l135.782-155.085 135.731 155.085c24.013 24.013 62.925 24.013 86.886 0s24.013-62.771 0.051-86.784z" />
</symbol>
<symbol id="icon-list" viewBox="0 0 1024 1024">
	<title>list</title>
	<path class="path1" d="M819.2 460.8h-614.4c-28.262 0-51.2 22.938-51.2 51.2s22.938 51.2 51.2 51.2h614.4c28.314 0 51.2-22.938 51.2-51.2s-22.886-51.2-51.2-51.2zM204.8 358.4h614.4c28.314 0 51.2-22.938 51.2-51.2s-22.886-51.2-51.2-51.2h-614.4c-28.262 0-51.2 22.938-51.2 51.2s22.938 51.2 51.2 51.2zM819.2 665.6h-614.4c-28.262 0-51.2 22.886-51.2 51.2s22.938 51.2 51.2 51.2h614.4c28.314 0 51.2-22.886 51.2-51.2s-22.886-51.2-51.2-51.2z" />
</symbol>
<symbol id="icon-back" viewBox="0 0 1024 1024">
	<title>back</title>
	<path class="path1" d="M511.232 849.92v-195.994l359.27 0.051v-284.262h-359.27v-195.635l-388.25 337.971z" />
</symbol>
</defs>
</svg>
